Coordinates
version=1
nRows=18
nColumns=22
inDegrees=yes

Units are S.I. units (second, meters, Newtons, ...)
If the header above contains a line with 'inDegrees', this indicates whether rotational values are in degrees (yes) or radians (no).

endheader
time	pelvis_tilt	pelvis_list	pelvis_rotation	pelvis_tx	pelvis_ty	pelvis_tz	hip_flexion_r	hip_adduction_r	hip_rotation_r	knee_angle_r	ankle_angle_r	subtalar_angle_r	hip_flexion_l	hip_adduction_l	hip_rotation_l	knee_angle_l	ankle_angle_l	subtalar_angle_l	lumbar_extension	lumbar_bending	lumbar_rotation
      3.10000000	     -4.91784461	     -1.53788284	      2.52307346	      0.22168224	      0.98768752	      0.29480381	      4.56324992	      1.00721933	     -9.58843148	    -26.90906891	     18.80007753	      4.06927629	     27.90221480	     -5.04054556	     -9.60347644	    -12.73915052	      6.77646580	      5.82864469	     -4.15391627	     -2.77674468	      1.06836768
      3.11000000	     -4.87143020	     -1.54615807	      2.51483159	      0.21326339	      0.98795811	      0.29647923	      4.94717649	      1.18985218	     -9.64376624	    -26.72780359	     18.98516565	      3.05655031	     28.11510498	     -5.19277514	    -10.16663158	    -13.21782400	      6.84711192	      5.88039225	     -4.25212862	     -2.78221569	      0.96106102
      3.12000000	     -4.80642063	     -1.54169812	      2.51751868	      0.20501213	      0.98831356	      0.29804394	      5.31013569	      1.35459376	     -9.67001852	    -26.56638259	     19.13667637	      2.11252077	     28.34210083	     -5.34366431	    -10.65962928	    -13.96443141	      6.93115871	      5.85524146	     -4.36237027	     -2.80359838	      0.83085713
      3.13000000	     -4.72151754	     -1.55181788	      2.54917828	      0.19692765	      0.98879844	      0.29947958	      5.64314619	      1.52269516	     -9.70990987	    -26.40512511	     19.19986897	      1.22631533	     28.57436925	     -5.50981911	    -11.04436637	    -14.95201220	      6.96627775	      5.78905316	     -4.48480368	     -2.81117644	      0.68982466
      3.14000000	     -4.61702398	     -1.57402144	      2.59451003	      0.18898578	      0.98944065	      0.30079686	      5.96095191	      1.68353860	     -9.75602291	    -26.26623550	     19.15774096	      0.44122865	     28.79462957	     -5.69154139	    -11.32882792	    -16.14693638	      6.94061381	      5.69557167	     -4.62288299	     -2.80386816	      0.54663465
      3.15000000	     -4.48589738	     -1.61675113	      2.63047510	      0.18115068	      0.99024830	      0.30201525	      6.27582690	      1.84393699	     -9.77430521	    -26.18212908	     19.03774799	     -0.14506161	     28.98775520	     -5.90504861	    -11.53092836	    -17.53352824	      6.94713569	      5.57397062	     -4.79011750	     -2.76841360	      0.41979768
      3.16000000	     -4.34068010	     -1.67626379	      2.65420853	      0.17340791	      0.99122892	      0.30313718	      6.59726348	      1.99676566	     -9.78181143	    -26.14005509	     18.82280249	     -0.56565505	     29.15374280	     -6.14529938	    -11.67443856	    -19.07671122	      6.94717053	      5.43388727	     -4.97131041	     -2.71254985	      0.32260377
      3.17000000	     -4.16167417	     -1.74631984	      2.64876161	      0.16577419	      0.99242419	      0.30416751	      6.89879538	      2.14084574	     -9.75079139	    -26.13056383	     18.52381500	     -0.75784578	     29.25135662	     -6.41370962	    -11.80883740	    -20.73939964	      6.97740030	      5.29251710	     -5.18407446	     -2.63671536	      0.26775521
      3.18000000	     -4.00656800	     -1.81153511	      2.62210951	      0.15820623	      0.99374056	      0.30509661	      7.23929331	      2.25753854	     -9.71464918	    -26.14501495	     18.13398960	     -0.88542820	     29.33812744	     -6.68583100	    -11.92882805	    -22.49723712	      6.96707041	      5.12786666	     -5.36147987	     -2.56600591	      0.24852534
      3.19000000	     -3.85598509	     -1.85322390	      2.56615464	      0.15071355	      0.99519737	      0.30593661	      7.58450182	      2.33554643	     -9.65734511	    -26.16143253	     17.68745012	     -0.92016999	     29.37565282	     -6.94741128	    -12.06134121	    -24.31854194	      6.95761823	      4.94883465	     -5.52384008	     -2.52006363	      0.26575453
      3.20000000	     -3.71951147	     -1.86955804	      2.48469282	      0.14329722	      0.99675788	      0.30669444	      7.93228310	      2.37925209	     -9.58281273	    -26.15849567	     17.19488815	     -0.89872642	     29.36954768	     -7.19424029	    -12.20554505	    -26.18495516	      6.95081699	      4.75005380	     -5.65576793	     -2.50368930	      0.31200090
      3.21000000	     -3.60047123	     -1.85412769	      2.38619852	      0.13594631	      0.99838791	      0.30736792	      8.27723907	      2.38529746	     -9.49959189	    -26.12086472	     16.67238386	     -0.85409451	     29.32135720	     -7.41290839	    -12.34757380	    -28.08016025	      6.94630870	      4.53041338	     -5.75373099	     -2.52475185	      0.37349038
      3.22000000	     -3.50134704	     -1.80863255	      2.28062265	      0.12866474	      1.00004688	      0.30795722	      8.61524207	      2.35763578	     -9.41852317	    -26.04040812	     16.13511895	     -0.81226307	     29.23708696	     -7.59748524	    -12.46704513	    -29.99658424	      6.94421756	      4.28826773	     -5.81353284	     -2.58087080	      0.43501717
      3.23000000	     -3.42060048	     -1.74024887	      2.17853116	      0.12146207	      1.00170033	      0.30848464	      8.93956798	      2.30643672	     -9.34508670	    -25.90864359	     15.58225696	     -0.78345104	     29.12106674	     -7.74981735	    -12.54003869	    -31.93188487	      6.94713090	      4.03346965	     -5.83471469	     -2.67049463	      0.48906010
      3.24000000	     -3.35650587	     -1.65823489	      2.08644177	      0.11433159	      1.00330755	      0.30891438	      9.25057214	      2.23599540	     -9.29179935	    -25.73501271	     15.02551601	     -0.77121954	     28.98171138	     -7.87068053	    -12.55064560	    -33.88710281	      6.95794780	      3.77727600	     -5.82412293	     -2.77324401	      0.52026204
      3.25000000	     -3.30942597	     -1.57617881	      2.01181793	      0.10727544	      1.00483151	      0.30925482	      9.54708790	      2.16222221	     -9.26329006	    -25.51467050	     14.48404424	     -0.77559280	     28.82553392	     -7.96630242	    -12.47614445	    -35.85872446	      6.98321847	      3.52759086	     -5.78129581	     -2.87596789	      0.52943161
      3.26000000	     -3.27001433	     -1.50385098	      1.95551507	      0.10028493	      1.00624988	      0.30947809	      9.82595033	      2.09137612	     -9.25175052	    -25.26267760	     13.95146423	     -0.78494270	     28.65056138	     -8.04290678	    -12.31131834	    -37.84865876	      7.02692080	      3.30400910	     -5.72127234	     -2.95888081	      0.51111270
      3.27000000	     -3.23643002	     -1.45106642	      1.91309241	      0.09335778	      1.00754224	      0.30960742	     10.08911780	      2.03438294	     -9.26573794	    -24.98463339	     13.43632461	     -0.79263849	     28.45390690	     -8.11128251	    -12.06176199	    -39.84565722	      7.09034394	      3.11291114	     -5.65072556	     -3.01725892	      0.47082331
